<svg data-v-423bf9ae="" xmlns="http://www.w3.org/2000/svg" viewBox="0 0 289.31419399198876 60" class="font"><!----><!----><defs data-v-423bf9ae=""><linearGradient data-v-423bf9ae="" gradientTransform="rotate(25)" id="245526f6-3210-4fbf-8841-679ee34c0c1b" x1="0%" y1="0%" x2="100%" y2="0%"><stop data-v-423bf9ae="" offset="0%" style="stop-color: rgb(0, 125, 232); stop-opacity: 1;"></stop><stop data-v-423bf9ae="" offset="100%" style="stop-color: rgb(161, 195, 219); stop-opacity: 1;"></stop></linearGradient></defs><g data-v-423bf9ae="" id="95af554d-9fab-498b-9f92-99845610b835" fill="url(#245526f6-3210-4fbf-8841-679ee34c0c1b)" transform="matrix(6.1412484328310715,0,0,6.1412484328310715,-6.632544770306197,-28.126917353826236)"><path d="M1.08 14.35L4.76 14.35C7.35 14.35 9.06 12.71 9.06 9.46C9.06 6.22 7.35 4.58 4.76 4.58L1.08 4.58ZM3.21 12.46L3.21 6.47L4.76 6.47C6.02 6.47 6.80 7.15 6.80 8.71L6.80 10.22C6.80 11.77 6.02 12.46 4.76 12.46ZM10.84 14.35L16.02 14.35C17.46 14.35 18.54 13.10 18.54 11.56C18.54 9.88 17.26 9.27 16.34 9.27L16.34 9.18C17.33 9.14 18.16 8.58 18.16 7.08C18.16 5.57 17.19 4.58 15.58 4.58L10.84 4.58ZM12.96 10.32L15.41 10.32C15.97 10.32 16.32 10.64 16.32 11.20L16.32 11.68C16.32 12.24 15.97 12.56 15.41 12.56L12.96 12.56ZM12.96 6.37L15.08 6.37C15.64 6.37 15.97 6.71 15.97 7.27L15.97 7.69C15.97 8.25 15.64 8.58 15.08 8.58L12.96 8.58ZM28.20 14.35L25.02 4.58L22.39 4.58L19.17 14.35L21.32 14.35L22.02 12.03L25.28 12.03L25.98 14.35ZM24.77 10.22L22.53 10.22L23.60 6.51L23.67 6.51ZM35.21 14.35L37.53 14.35L37.53 4.58L35.53 4.58L35.53 11.16L35.49 11.16L34.55 9.20L31.88 4.58L29.55 4.58L29.55 14.35L31.56 14.35L31.56 7.77L31.60 7.77L32.54 9.73ZM45.68 14.35L48.19 14.35L44.60 8.60L47.89 4.58L45.49 4.58L43.29 7.34L41.90 9.23L41.82 9.23L41.82 4.58L39.69 4.58L39.69 14.35L41.82 14.35L41.82 11.63L43.09 10.09Z"></path></g><!----><!----></svg>